<svg xmlns="http://www.w3.org/2000/svg" viewBox="0 0 80.079 57.454" height="217.149" width="302.66"><path d="M34.464 17.81l.375 2.005s-11.091-.875-18.442 1.059v-4.315h-.657v-1.275l19.365-3.61 1.022-1.106V3.654h-.51V1.192h4.25v2.462h-.509v3.428L45.925 0l14.17 15.284v1.275h-.68v10.006c-4.182-2.226-10.128-3.94-10.128-3.94l1.73-1.648-.74-.665.48-2.502-2.219.576-.845-1.331-2.198 1.997.402-4.779-1.562.692-1.702-2.897-1.747 2.897-1.56-.692.4 4.779-2.201-1.997-.818 1.331-2.243-.576" fill="#b4131d"/><path d="M12.395 37.416h1.649c2.04 0 3.146-.76 3.146-2.865 0-1.823-1.497-2.43-3.146-2.43h-1.649zm-2.127 7.897V30.17h4.014c3.039 0 5.034 1.822 5.034 4.382 0 3.646-2.56 4.818-5.771 4.818h-1.15v5.685l-2.127.26M22.572 41.126c0 1.54.89 2.322 2.386 2.322 1.433 0 2.69-.543 2.69-2.322 0-1.389-1.236-2.04-2.537-2.04-1.237 0-2.539.608-2.539 2.04zm5.294 4.274v-1.518h-.043c-.63 1.236-1.931 1.518-3.255 1.518-2.474 0-4.079-1.844-4.079-4.274 0-2.43 2.148-3.884 4.383-3.884 1.041 0 2.061.304 2.777 1.063v-.846c0-1.627-.977-1.779-2.604-1.779-.911 0-2.083.065-3.21.629l.563-2.148c.76-.152 1.975-.434 2.994-.434 2.951 0 4.34 1.172 4.34 4.123v7.204l-1.866.346M40.147 36.7c-.933-.694-1.54-1.02-2.777-1.02-2.105 0-3.537 1.888-3.537 3.906 0 1.974 1.67 3.862 3.58 3.862 1.171 0 1.953-.565 2.712-1.302l1.345 1.367c-1.106 1.15-2.495 1.887-4.122 1.887-2.907 0-5.598-2.517-5.598-5.75s2.3-5.923 5.598-5.923c1.519 0 2.907.542 4.058 1.54L40.147 36.7M43.576 45.4V34.074l2.083-.347v11.327zm1.02-15.86l1.388 1.648-1.345 1.627-1.388-1.627 1.344-1.649M57.115 33.727v11.327l-2.083.346V34.074zm-.955-1.02l-1.454-1.584 1.454-1.584 1.367 1.584zm-7.247 3.211h-1.432l.608-1.844h.824c-.044-3.298 1.823-4.361 4.275-4.361l.694 1.887c-.304-.043-.608-.043-.78-.043-1.412 0-2.106.26-2.106 2.517h2.778v1.844h-2.778v9.136l-2.083.346v-9.482M67.444 36.7c-.933-.694-1.54-1.02-2.777-1.02-2.105 0-3.538 1.888-3.538 3.906 0 1.974 1.671 3.862 3.58 3.862 1.172 0 1.954-.565 2.713-1.302l1.345 1.367c-1.106 1.15-2.495 1.887-4.122 1.887-2.908 0-5.598-2.517-5.598-5.75s2.3-5.923 5.598-5.923c1.518 0 2.907.542 4.057 1.54L67.444 36.7" fill="#393536"/><path d="M3.809 57.331V54.88h-2.54v2.451H0v-5.925h1.27v2.292h2.539v-2.292h1.27v5.925h-1.27M9.771 52.472c-1.058 0-1.851.82-1.851 1.896s.793 1.896 1.851 1.896c1.058 0 1.852-.82 1.852-1.896s-.794-1.896-1.852-1.896zm0 4.982c-1.896 0-3.2-1.56-3.2-3.086 0-1.525 1.304-3.086 3.2-3.086 1.896 0 3.2 1.56 3.2 3.086 0 1.525-1.304 3.086-3.2 3.086M19.207 57.331v-3.96l-1.737 2.073-1.737-2.072v3.959h-1.27v-5.925h1.2l1.807 2.213 1.808-2.213h1.199v5.925h-1.27M22.145 57.331v-5.925h3.986v1.181h-2.716v1.111h1.931v1.182h-1.931v1.27h2.716v1.181h-3.986M35.778 57.331H34.58l-1.146-3.88-1.146 3.88h-1.2l-1.833-5.925h1.26l1.173 3.862 1.164-3.862h1.164l1.164 3.862 1.173-3.862h1.26l-1.834 5.925M40.727 53.037l-.714 1.984h1.42zm1.535 4.294l-.432-1.217h-2.213l-.433 1.217h-1.349l2.302-5.925h1.173l2.3 5.925h-1.348M46.574 52.587h-.564v1.385h.547c.608 0 .838-.327.838-.706 0-.415-.291-.679-.82-.679zm1.473 4.744l-1.57-2.222h-.467v2.222h-1.27v-5.925h1.958c1.65 0 1.966 1.269 1.966 1.833 0 .75-.423 1.244-.943 1.543l1.922 2.549h-1.596M52.44 52.587h-.565v1.385h.547c.608 0 .838-.327.838-.706 0-.415-.291-.679-.82-.679zm1.472 4.744l-1.57-2.222h-.467v2.222h-1.27v-5.925h1.958c1.65 0 1.966 1.269 1.966 1.833 0 .75-.423 1.244-.943 1.543l1.922 2.549h-1.596M58.904 53.037l-.714 1.984h1.42zm1.534 4.294l-.432-1.217h-2.213l-.432 1.217h-1.35l2.302-5.925h1.173l2.302 5.925h-1.35M67.08 57.331l-3.016-3.862v3.862h-1.27v-5.925h1.27L67 55.162v-3.756h1.27v5.925h-1.19M72.336 52.587v4.744h-1.27v-4.744h-1.692v-1.181h4.655v1.181h-1.693M77.98 54.72v2.611h-1.27v-2.61l-2.098-3.315h1.464l1.27 2.116 1.27-2.116h1.463L77.98 54.72" fill="#b4131d"/></svg>